<svg version="1.2" xmlns="http://www.w3.org/2000/svg" viewBox="0 0 1021 1020" width="100" height="100">
	<style>
		.s0 { fill: #ffffff } 
		.s1 { fill: #171445;stroke: #fefefe;stroke-miterlimit:10 } 
		.s2 { fill: #fefefe;stroke: #000000;stroke-linejoin: round } 
		.s3 { fill: #ffffff;stroke: #000000;stroke-linejoin: round } 
		.s4 { fill: #fdfdfd;stroke: #000000;stroke-linejoin: round } 
		.s5 { fill: #388bfd;stroke: #fefefe;stroke-miterlimit:10 } 
		.s6 { fill: #70c8f0;stroke: #fefefe;stroke-miterlimit:10 } 
	</style>
	<g id="_Artboards_">
		<path id="Artboard 4" class="s0" d="m-2137 1384h2000v-2000h-2000z"/>
	</g>
	<g id="Layer 1">
		<path id="&lt;Path&gt;" class="s1" d="m3357 1066h-2000v-2000h2000z"/>
		<g id="&lt;Group&gt;">
			<g id="&lt;Group&gt;">
			</g>
		</g>
		<g id="&lt;Group&gt;">
		</g>
		<g id="&lt;Group&gt;">
			<g id="&lt;Group&gt;">
				<g id="&lt;Group&gt;">
				</g>
			</g>
			<g id="&lt;Group&gt;">
			</g>
		</g>
		<g id="&lt;Group&gt;">
			<g id="&lt;Group&gt;">
				<g id="&lt;Group&gt;">
					<g id="&lt;Group&gt;">
					</g>
				</g>
				<g id="&lt;Group&gt;">
				</g>
			</g>
		</g>
		<g id="&lt;Group&gt;">
			<g id="&lt;Group&gt;">
				<g id="&lt;Group&gt;">
					<g id="&lt;Group&gt;">
					</g>
				</g>
				<g id="&lt;Group&gt;">
				</g>
			</g>
		</g>
		<g id="&lt;Group&gt;">
			<path id="&lt;Path&gt;" class="s2" d="m558.88 519.97h-108.12l24 25.92 17.04 100.2h26.04l16.92-100.2z"/>
			<path id="&lt;Path&gt;" class="s3" d="m470.68 729.37l0.96 49.92-19.92-7.2-1.2-39.36-12.72-15.12v-89.28l-57.36-57.36-34.8-45.84-92.16-25.2 20.4 43.92 26.88 13.44 35.76 5.52 13.2 24-54.72-0.48-45.36-23.04-47.28-104.4 189.36 38.4 64.56 63.12 16.44 106.56h63.12l18.12-107.16 65.16-63.12 187.8-37.8v2.88l-48 102.24-45.84 24.12-55.44 0.12 14.16-24.36 37.08-6.12 26.28-12.72 20.88-45.24-93 25.2-35.88 48.12-55.56 55.8-0.6 90.24-11.76 15-1.2 37.68-20.4 7.44-0.72-48.96-30.54-0.96z"/>
			<path id="&lt;Path&gt;" class="s4" d="m374.92 595.45l-0.03 56.43 42.84 49.05v-63z"/>
			<path id="&lt;Path&gt;" class="s5" d="m374.89 683.11v95.58l62.91 65.25v-89.01z"/>
			<path id="&lt;Path&gt;" class="s5" d="m454.72 790.93l0.27 71.91 98.91 0.09v-72h-16.02l-2.88 5.04-61.02-0.09-2.97-4.95z"/>
			<path id="&lt;Path&gt;" class="s5" d="m570.76 754.9l-0.09 89.28 64.35-66.6v-94.77z"/>
			<path id="&lt;Path&gt;" class="s2" d="m591.16 701.53l43.86-50.64v-53.28l-43.86 41.28z"/>
			<g id="&lt;Group&gt;">
				<g id="&lt;Group&gt;">
					<path id="&lt;Path&gt;" class="s6" d="m707.92 458.89l15.12-9v-7.02l130.86-76.86v-61.74l15.84-9.36v-28.44l-22.5-14.76h-4.14l-23.22 14.4v28.98l14.76 9.18-0.36 50.22-109.8 64.62 0.36 13.86-16.92 9.9z"/>
					<path id="&lt;Path&gt;" class="s6" d="m641.5 465.01v-22.14l55.26-32.94v-90.18l35.1-24.84 0.18-79.56 6.12 2.43 7.06 0.14 6.03-2.07-0.27 89.86-34.11 23.63v91.44l-73.08 44.23z"/>
					<path id="&lt;Path&gt;" class="s6" d="m623.05 396.61v-22.5l20.88-13.14v-68.94l-15.3-9.18 0.27-29.7 22.95-13.23h4.14l22.77 14.04v28.08l-15.03 10.08-0.27 81z"/>
					<path id="&lt;Path&gt;" class="s1" d="m652.66 278.08h2.52l7.83-5.22v-8.91l-8.1-6.12h-2.25l-7.38 5.49v9.9z"/>
					<path id="&lt;Path&gt;" class="s6" d="m739.87 215.98h5.22l22.59-14.04 0.27-30.06-24.21-14.94h-2.7l-24.39 15.12v29.79z"/>
					<path id="&lt;Path&gt;" class="s1" d="m741.22 196.99h2.61l7.42-4.32v-11.79l-7.96-5.04h-2.07l-8.28 5.04v11.25z"/>
					<path id="&lt;Path&gt;" class="s1" d="m835.9 275.11v10.98l8.1 4.86h2.07l6.75-4.77 0.36-11.07-7.38-5.22h-1.8z"/>
					<g id="&lt;Group&gt;">
						<path id="&lt;Path&gt;" class="s6" d="m526.72 510.07h27.24l46.08-52.2-0.06-49.02 15.84-10.62 0.06-27.6-22.98-13.92h-4.8l-22.2 14.28 0.06 28.8 12.72 8.28 0.3 42.96z"/>
						<path id="&lt;Path&gt;" class="s1" d="m582.38 382.38v7.71c0 1.03 0.54 1.99 1.42 2.52l5.98 3.59q0.7 0.41 1.51 0.41h0.32c0.61 0 1.2-0.18 1.7-0.53l4.79-3.39c0.75-0.53 1.21-1.39 1.24-2.31l0.26-8.02c0.04-0.99-0.43-1.93-1.24-2.5l-5.32-3.77c-0.5-0.35-1.09-0.54-1.7-0.54-0.56 0-1.12 0.17-1.59 0.47l-6.03 3.89c-0.84 0.54-1.34 1.47-1.34 2.47z"/>
					</g>
				</g>
				<path id="&lt;Path&gt;" class="s6" d="m311.35 466.18l-15.12-9v-7.02l-130.86-76.86v-61.74l-15.84-9.36v-28.44l22.5-14.76h4.14l23.22 14.4v28.98l-14.76 9.18 0.36 50.22 109.8 64.62-0.36 13.86 16.92 9.9z"/>
				<path id="&lt;Path&gt;" class="s6" d="m377.77 472.3v-22.14l-55.26-32.94v-90.18l-35.1-24.84-0.18-79.56-6.12 2.43-7.07 0.14-6.03-2.07 0.27 89.86 34.11 23.63v91.44l73.08 44.23"/>
				<path id="&lt;Path&gt;" class="s6" d="m396.22 403.9v-22.5l-20.88-13.14v-68.94l15.3-9.18-0.27-29.7-22.95-13.23h-4.14l-22.77 14.04v28.08l15.03 10.08 0.27 81z"/>
				<path id="&lt;Path&gt;" class="s1" d="m366.61 285.37h-2.52l-7.83-5.22v-8.91l8.1-6.12h2.25l7.38 5.49v9.9z"/>
				<path id="&lt;Path&gt;" class="s6" d="m279.4 223.27h-5.22l-22.59-14.04-0.27-30.06 24.21-14.94h2.7l24.39 15.12v29.79z"/>
				<path id="&lt;Path&gt;" class="s1" d="m278.05 204.28h-2.61l-7.43-4.32v-11.79l7.97-5.04h2.07l8.28 5.04v11.25z"/>
				<path id="&lt;Path&gt;" class="s1" d="m183.37 282.4v10.98l-8.1 4.86h-2.07l-6.75-4.77-0.36-11.07 7.38-5.22h1.8z"/>
				<g id="&lt;Group&gt;">
					<path id="&lt;Path&gt;" class="s6" d="m492.76 513.07h-27.24l-46.08-52.2 0.06-49.02-15.84-10.62-0.06-27.6 22.98-13.92h4.8l22.2 14.28-0.06 28.8-12.72 8.28-0.3 42.96z"/>
					<path id="&lt;Path&gt;" class="s1" d="m437.1 382.38v7.71c0 1.03-0.55 1.99-1.43 2.52l-5.98 3.59q-0.69 0.41-1.51 0.41h-0.32c-0.61 0-1.2-0.18-1.7-0.53l-4.79-3.39c-0.75-0.53-1.21-1.39-1.24-2.31l-0.26-8.02c-0.03-0.99 0.43-1.93 1.24-2.5l5.32-3.77c0.5-0.35 1.09-0.54 1.7-0.54 0.57 0 1.12 0.17 1.59 0.47l6.03 3.89c0.84 0.54 1.35 1.47 1.35 2.47z"/>
				</g>
			</g>
		</g>
		<g id="&lt;Group&gt;">
			<g id="&lt;Group&gt;">
				<g id="&lt;Group&gt;">
				</g>
			</g>
			<g id="&lt;Group&gt;">
			</g>
		</g>
	</g>
</svg>