<svg version="1.2" xmlns="http://www.w3.org/2000/svg" viewBox="0 0 868 882" width="31" height="32">
	<style>
		tspan { white-space:pre } 
		.s0 { fill: #0000ff } 
		.s1 { fill: #ffffff } 
		.s2 { fill: #5a6c79;stroke: #fefefe;stroke-miterlimit:10 } 
		.s3 { fill: #0000ff;stroke: #fefefe;stroke-miterlimit:10 } 
		.s4 { fill: #050505;stroke: #fefefe;stroke-miterlimit:10 } 
		.s5 { fill: #fefefe;stroke: #fefefe;stroke-miterlimit:10 } 
		.s6 { fill: #fdfdfd;stroke: #fefefe;stroke-miterlimit:10 } 
		.s7 { fill: #70c8f0;stroke: #fefefe;stroke-miterlimit:10 } 
		.s8 { fill: #00b5f0;stroke: #fefefe;stroke-miterlimit:10 } 
		.s9 { fill: #1580a5;stroke: #fefefe;stroke-miterlimit:10 } 
		.s10 { fill: #231f20;stroke: #fefefe;stroke-miterlimit:10 } 
		.t11 { font-size: 335px;fill: #3ebfec;font-weight: bold;font-family: "Arial Rounded MT Bold" } 
		.t12 { font-size: 335px;fill: #ffffff;font-weight: bold;font-family: "Arial Rounded MT Bold" } 
	</style>
	<g id="_Artboards_">
		<path id="Artboard 1" class="s0" d="m-557.04 1502.48h2000v-2000h-2000z"/>
		<path id="Artboard 2" class="s1" d="m1462 1502h2000v-2000h-2000z"/>
		<path id="Artboard 3" class="s1" d="m3482 1502h2000v-2000h-2000z"/>
		<path id="Artboard 4" class="s1" d="m-558 3522h2000v-2000h-2000z"/>
		<path id="Artboard 5" class="s1" d="m1462 3522h2000v-2000h-2000z"/>
		<path id="Artboard 6" class="s1" d="m3482 3522h2000v-2000h-2000z"/>
	</g>
	<g id="Layer 1">
		<path id="&lt;Path&gt;" class="s2" d="m1442 3522h-2000v-2000h2000z"/>
		<path id="&lt;Path&gt;" class="s3" d="m1442.96 1502.48h-2000v-2000h2000z"/>
		<path id="&lt;Path&gt;" class="s4" d="m5470.95 1502h-2000v-2000h2000z"/>
		<g id="&lt;Group&gt;">
			<path id="&lt;Path&gt;" class="s5" d="m492.2 474.4h-108.12l24 25.92 17.04 100.2h26.04l16.92-100.2z"/>
			<path id="&lt;Path&gt;" class="s5" d="m404 683.8l0.96 49.92-19.92-7.2-1.2-39.36-12.72-15.12v-89.28l-57.36-57.36-34.8-45.84-92.16-25.2 20.4 43.92 26.88 13.44 35.76 5.52 13.2 24-54.72-0.48-45.36-23.04-47.28-104.4 189.36 38.4 64.56 63.12 16.44 106.56h63.12l18.12-107.16 65.16-63.12 187.8-37.8v2.88l-48 102.24-45.84 24.12-55.44 0.12 14.16-24.36 37.08-6.12 26.28-12.72 20.88-45.24-93 25.2-35.88 48.12-55.56 55.8-0.6 90.24-11.76 15-1.2 37.68-20.4 7.44-0.72-48.96-30.53-0.96z"/>
			<path id="&lt;Path&gt;" class="s6" d="m308.24 549.88l-0.03 56.43 42.84 49.05v-63z"/>
			<path id="&lt;Path&gt;" class="s7" d="m308.21 637.54v95.58l62.91 65.25v-89.01z"/>
			<path id="&lt;Path&gt;" class="s7" d="m388.04 745.36l0.27 71.91 98.91 0.09v-72h-16.02l-2.88 5.04-61.02-0.09-2.97-4.95z"/>
			<path id="&lt;Path&gt;" class="s7" d="m504.08 709.33l-0.09 89.28 64.35-66.6v-94.77z"/>
			<path id="&lt;Path&gt;" class="s5" d="m524.48 655.96l43.86-50.64v-53.28l-43.86 41.28z"/>
			<g id="&lt;Group&gt;">
				<g id="&lt;Group&gt;">
					<path id="&lt;Path&gt;" class="s7" d="m641.24 413.32l15.12-9v-7.02l130.86-76.86v-61.74l15.84-9.36v-28.44l-22.5-14.76h-4.14l-23.22 14.4v28.98l14.76 9.18-0.36 50.22-109.8 64.62 0.36 13.86-16.92 9.9z"/>
					<path id="&lt;Path&gt;" class="s7" d="m574.82 419.44v-22.14l55.26-32.94v-90.18l35.1-24.84 0.18-79.56 6.12 2.43 7.07 0.14 6.03-2.07-0.27 89.86-34.11 23.63v91.44l-73.08 44.23z"/>
					<path id="&lt;Path&gt;" class="s7" d="m556.37 351.04v-22.5l20.88-13.14v-68.94l-15.3-9.18 0.27-29.7 22.95-13.23h4.14l22.77 14.04v28.08l-15.03 10.08-0.27 81z"/>
					<path id="&lt;Path&gt;" class="s3" d="m585.98 232.51h2.52l7.83-5.22v-8.91l-8.1-6.12h-2.25l-7.38 5.49v9.9z"/>
					<path id="&lt;Path&gt;" class="s7" d="m673.19 170.41h5.22l22.59-14.04 0.27-30.06-24.21-14.94h-2.7l-24.39 15.12v29.79z"/>
					<path id="&lt;Path&gt;" class="s3" d="m674.54 151.42h2.61l7.43-4.32v-11.79l-7.97-5.04h-2.07l-8.28 5.04v11.25z"/>
					<path id="&lt;Path&gt;" class="s3" d="m769.22 229.54v10.98l8.1 4.86h2.07l6.75-4.77 0.36-11.07-7.38-5.22h-1.8z"/>
					<g id="&lt;Group&gt;">
						<path id="&lt;Path&gt;" class="s7" d="m460.04 467.5h27.24l46.08-52.2-0.06-49.02 15.84-10.62 0.06-27.6-22.98-13.92h-4.8l-22.2 14.28 0.06 28.8 12.72 8.28 0.3 42.96z"/>
						<path id="&lt;Path&gt;" class="s3" d="m515.7 336.8v7.72c0 1.03 0.55 1.99 1.43 2.52l5.98 3.58q0.69 0.42 1.51 0.42h0.32c0.61 0 1.2-0.19 1.7-0.54l4.79-3.39c0.75-0.53 1.21-1.38 1.24-2.3l0.26-8.03c0.03-0.99-0.43-1.92-1.24-2.49l-5.32-3.77c-0.5-0.35-1.09-0.54-1.7-0.54-0.57 0-1.12 0.16-1.59 0.47l-6.03 3.88c-0.84 0.54-1.35 1.47-1.35 2.47z"/>
					</g>
				</g>
				<path id="&lt;Path&gt;" class="s7" d="m244.68 420.61l-15.12-9v-7.02l-130.86-76.86v-61.74l-15.84-9.36v-28.44l22.5-14.76h4.14l23.22 14.4v28.98l-14.76 9.18 0.36 50.22 109.8 64.62-0.36 13.86 16.92 9.9z"/>
				<path id="&lt;Path&gt;" class="s7" d="m311.1 426.73v-22.14l-55.26-32.94v-90.18l-35.1-24.84-0.18-79.56-6.12 2.43-7.07 0.13-6.03-2.07 0.27 89.87 34.11 23.63v91.44l73.08 44.23"/>
				<path id="&lt;Path&gt;" class="s7" d="m329.55 358.33v-22.5l-20.88-13.14v-68.94l15.3-9.18-0.27-29.7-22.95-13.23h-4.14l-22.77 14.04v28.08l15.03 10.08 0.27 81z"/>
				<path id="&lt;Path&gt;" class="s3" d="m299.94 239.8h-2.52l-7.83-5.22v-8.91l8.1-6.12h2.25l7.38 5.49v9.9z"/>
				<path id="&lt;Path&gt;" class="s7" d="m212.73 177.7h-5.22l-22.59-14.04-0.27-30.06 24.21-14.94h2.7l24.39 15.12v29.79z"/>
				<path id="&lt;Path&gt;" class="s3" d="m211.38 158.71h-2.61l-7.43-4.32v-11.79l7.97-5.04h2.07l8.28 5.04v11.25z"/>
				<path id="&lt;Path&gt;" class="s3" d="m116.7 236.83v10.98l-8.1 4.86h-2.07l-6.75-4.77-0.36-11.07 7.38-5.22h1.8z"/>
				<g id="&lt;Group&gt;">
					<path id="&lt;Path&gt;" class="s7" d="m426.08 467.5h-27.24l-46.08-52.2 0.06-49.02-15.84-10.62-0.06-27.6 22.98-13.92h4.8l22.2 14.28-0.06 28.8-12.72 8.28-0.3 42.96z"/>
					<path id="&lt;Path&gt;" class="s2" d="m370.42 336.8v7.72c0 1.03-0.54 1.99-1.42 2.52l-5.98 3.58q-0.7 0.42-1.51 0.42h-0.32c-0.61 0-1.2-0.19-1.7-0.54l-4.79-3.39c-0.75-0.53-1.21-1.38-1.24-2.3l-0.27-8.03c-0.03-0.99 0.44-1.92 1.25-2.49l5.32-3.77c0.5-0.35 1.09-0.54 1.7-0.54 0.56 0 1.12 0.16 1.59 0.47l6.03 3.88c0.84 0.54 1.34 1.47 1.34 2.47z"/>
				</g>
			</g>
		</g>
		<path id="&lt;Path&gt;" class="s8" d="m1969.47 477.54h-108.12l24 25.92 17.04 100.2h26.04l16.92-100.2z"/>
		<path id="&lt;Path&gt;" class="s8" d="m1881.27 686.94l0.96 49.91-19.92-7.19-1.2-39.36-12.72-15.12v-89.28l-57.36-57.36-34.8-45.85-92.16-25.2 20.4 43.93 26.88 13.44 35.76 5.51 13.2 24-54.72-0.47-45.36-23.04-47.28-104.4 189.36 38.4 64.56 63.12 16.44 106.56h63.12l18.12-107.17 65.16-63.12 187.8-37.79v2.88l-48 102.23-45.84 24.13-55.44 0.12 14.16-24.36 37.08-6.12 26.28-12.73 20.88-45.24-93 25.2-35.88 48.13-55.56 55.79-0.6 90.24-11.76 15-1.2 37.69-20.4 7.43-0.72-48.95-30.53-0.96z"/>
		<path id="&lt;Path&gt;" class="s8" d="m1785.51 553.02l-0.03 56.43 42.84 49.05v-63z"/>
		<path id="&lt;Path&gt;" class="s8" d="m1785.48 640.68v95.58l62.91 65.25v-89.01z"/>
		<path id="&lt;Path&gt;" class="s8" d="m1865.31 748.5l0.27 71.91 98.91 0.09v-72h-16.02l-2.88 5.04-61.02-0.09-2.97-4.95z"/>
		<path id="&lt;Path&gt;" class="s8" d="m1981.35 712.47l-0.09 89.28 64.35-66.6v-94.77z"/>
		<path id="&lt;Path&gt;" class="s8" d="m2001.75 659.1l43.86-50.64v-53.28l-43.86 41.28z"/>
		<g id="&lt;Group&gt;">
			<g id="&lt;Group&gt;">
				<path id="&lt;Path&gt;" class="s9" d="m2118.51 416.46l15.12-9v-7.02l130.86-76.86v-61.74l15.84-9.36v-28.44l-22.5-14.76h-4.14l-23.22 14.4v28.98l14.76 9.18-0.36 50.22-109.8 64.62 0.36 13.86-16.92 9.9z"/>
				<path id="&lt;Path&gt;" class="s9" d="m2052.09 422.58v-22.14l55.26-32.94v-90.18l35.1-24.84 0.18-79.56 6.12 2.43 7.07 0.13 6.03-2.07-0.27 89.87-34.11 23.62v91.44l-73.08 44.24z"/>
				<path id="&lt;Path&gt;" class="s9" d="m2033.64 354.18v-22.5l20.88-13.14v-68.94l-15.3-9.18 0.27-29.7 22.95-13.23h4.14l22.77 14.04v28.08l-15.03 10.08-0.27 81z"/>
				<path id="&lt;Path&gt;" class="s5" d="m2063.25 235.65h2.52l7.83-5.22v-8.91l-8.1-6.12h-2.25l-7.38 5.49v9.9z"/>
				<path id="&lt;Path&gt;" class="s9" d="m2150.46 173.55h5.22l22.59-14.04 0.27-30.06-24.21-14.94h-2.7l-24.39 15.12v29.79z"/>
				<path id="&lt;Path&gt;" class="s5" d="m2151.81 154.56h2.61l7.43-4.32v-11.79l-7.97-5.04h-2.07l-8.28 5.04v11.25z"/>
				<path id="&lt;Path&gt;" class="s5" d="m2246.49 232.68v10.98l8.1 4.86h2.07l6.75-4.77 0.36-11.07-7.38-5.22h-1.8z"/>
				<g id="&lt;Group&gt;">
					<path id="&lt;Path&gt;" class="s9" d="m1937.31 470.64h27.24l46.08-52.2-0.06-49.02 15.84-10.62 0.06-27.6-22.98-13.92h-4.8l-22.2 14.28 0.06 28.8 12.72 8.28 0.3 42.96z"/>
					<path id="&lt;Path&gt;" class="s5" d="m1992.97 339.94v7.71c0 1.03 0.54 1.99 1.43 2.52l5.97 3.59q0.7 0.41 1.51 0.42h0.33c0.6 0 1.2-0.19 1.69-0.54l4.8-3.39c0.75-0.53 1.21-1.39 1.24-2.31l0.26-8.02c0.03-0.99-0.44-1.93-1.24-2.5l-5.33-3.77c-0.49-0.35-1.09-0.53-1.69-0.53-0.57 0-1.12 0.16-1.6 0.46l-6.02 3.89c-0.84 0.54-1.35 1.47-1.35 2.47z"/>
				</g>
			</g>
			<path id="&lt;Path&gt;" class="s9" d="m1721.94 423.75l-15.12-9v-7.02l-130.86-76.87v-61.74l-15.84-9.36v-28.44l22.5-14.76h4.14l23.22 14.4v28.98l-14.76 9.18 0.36 50.22 109.8 64.63-0.36 13.86 16.92 9.9z"/>
			<path id="&lt;Path&gt;" class="s9" d="m1788.36 429.87v-22.14l-55.26-32.94v-90.18l-35.1-24.84-0.18-79.56-6.12 2.43-7.06 0.13-6.03-2.07 0.27 89.86 34.11 23.63v91.44l73.08 44.24"/>
			<path id="&lt;Path&gt;" class="s9" d="m1806.81 361.47v-22.5l-20.88-13.14v-68.94l15.3-9.18-0.27-29.7-22.95-13.23h-4.14l-22.77 14.04v28.08l15.03 10.08 0.27 81z"/>
			<path id="&lt;Path&gt;" class="s5" d="m1777.2 242.94h-2.52l-7.83-5.22v-8.91l8.1-6.12h2.25l7.38 5.49v9.9z"/>
			<path id="&lt;Path&gt;" class="s9" d="m1689.99 180.84l-5.22-0.01-22.59-14.04-0.27-30.06 24.21-14.93h2.7l24.39 15.12v29.79z"/>
			<path id="&lt;Path&gt;" class="s5" d="m1688.64 161.85h-2.61l-7.42-4.33v-11.79l7.96-5.03h2.07l8.28 5.04v11.25z"/>
			<path id="&lt;Path&gt;" class="s5" d="m1593.96 239.96v10.98l-8.1 4.86h-2.07l-6.75-4.77-0.36-11.07 7.38-5.22h1.8z"/>
			<g id="&lt;Group&gt;">
				<path id="&lt;Path&gt;" class="s9" d="m1903.35 470.64h-27.24l-46.08-52.2 0.06-49.02-15.84-10.63-0.06-27.6 22.98-13.91h4.8l22.2 14.28-0.06 28.8-12.72 8.28-0.3 42.96z"/>
				<path id="&lt;Path&gt;" class="s5" d="m1847.69 339.94v7.71c0 1.03-0.54 1.99-1.43 2.52l-5.97 3.59q-0.7 0.41-1.51 0.42h-0.33c-0.6 0-1.2-0.19-1.69-0.54l-4.8-3.39c-0.75-0.53-1.21-1.39-1.24-2.31l-0.26-8.02c-0.03-0.99 0.44-1.93 1.24-2.5l5.33-3.77c0.49-0.35 1.09-0.53 1.69-0.53 0.57 0 1.12 0.16 1.6 0.46l6.02 3.89c0.84 0.54 1.35 1.47 1.35 2.47z"/>
			</g>
		</g>
		<g id="&lt;Group&gt;">
			<path id="&lt;Path&gt;" class="s5" d="m4575.11 443.04h-108.12l24 25.92 17.04 100.2h26.04l16.92-100.2z"/>
			<path id="&lt;Path&gt;" class="s5" d="m4486.91 652.44l0.96 49.91-19.92-7.19-1.2-39.36-12.72-15.12v-89.28l-57.36-57.36-34.8-45.85-92.16-25.2 20.4 43.93 26.88 13.44 35.76 5.51 13.2 24-54.72-0.47-45.36-23.04-47.28-104.4 189.36 38.4 64.56 63.12 16.44 106.56h63.12l18.12-107.17 65.16-63.12 187.8-37.79v2.88l-48 102.23-45.84 24.13-55.44 0.12 14.16-24.36 37.08-6.12 26.28-12.73 20.88-45.24-93 25.2-35.88 48.13-55.56 55.79-0.6 90.24-11.76 15-1.2 37.69-20.4 7.43-0.72-48.95-30.53-0.96z"/>
			<path id="&lt;Path&gt;" class="s5" d="m4391.15 518.52l-0.03 56.43 42.84 49.05v-63z"/>
			<path id="&lt;Path&gt;" class="s5" d="m4391.12 606.18v95.58l62.91 65.25v-89.01z"/>
			<path id="&lt;Path&gt;" class="s5" d="m4470.95 714l0.27 71.91 98.91 0.09v-72h-16.02l-2.88 5.04-61.02-0.09-2.97-4.95z"/>
			<path id="&lt;Path&gt;" class="s5" d="m4586.99 677.97l-0.09 89.28 64.35-66.6v-94.77z"/>
			<path id="&lt;Path&gt;" class="s5" d="m4607.39 624.6l43.86-50.64v-53.28l-43.86 41.28z"/>
			<g id="&lt;Group&gt;">
				<g id="&lt;Group&gt;">
					<path id="&lt;Path&gt;" class="s5" d="m4724.15 381.96l15.12-9v-7.02l130.86-76.86v-61.74l15.84-9.36v-28.44l-22.5-14.76h-4.14l-23.22 14.4v28.98l14.76 9.18-0.36 50.22-109.8 64.62 0.36 13.86-16.92 9.9z"/>
					<path id="&lt;Path&gt;" class="s5" d="m4657.73 388.08v-22.14l55.26-32.94v-90.18l35.1-24.84 0.18-79.56 6.12 2.43 7.07 0.13 6.03-2.07-0.27 89.87-34.11 23.62v91.44l-73.08 44.24z"/>
					<path id="&lt;Path&gt;" class="s5" d="m4639.28 319.68v-22.5l20.88-13.14v-68.94l-15.3-9.18 0.27-29.7 22.95-13.23h4.14l22.77 14.04v28.08l-15.03 10.08-0.27 81z"/>
					<path id="&lt;Path&gt;" class="s5" d="m4668.89 201.15h2.52l7.83-5.22v-8.91l-8.1-6.12h-2.25l-7.38 5.49v9.9z"/>
					<path id="&lt;Path&gt;" class="s5" d="m4756.1 139.05h5.22l22.59-14.04 0.27-30.06-24.21-14.94h-2.7l-24.39 15.12v29.79z"/>
					<path id="&lt;Path&gt;" class="s5" d="m4757.45 120.06h2.61l7.43-4.32v-11.79l-7.97-5.04h-2.07l-8.28 5.04v11.25z"/>
					<path id="&lt;Path&gt;" class="s5" d="m4852.13 198.18v10.98l8.1 4.86h2.07l6.75-4.77 0.36-11.07-7.38-5.22h-1.8z"/>
					<g id="&lt;Group&gt;">
						<path id="&lt;Path&gt;" class="s5" d="m4542.95 436.14h27.24l46.08-52.2-0.06-49.02 15.84-10.62 0.06-27.6-22.98-13.92h-4.8l-22.2 14.28 0.06 28.8 12.72 8.28 0.3 42.96z"/>
						<path id="&lt;Path&gt;" class="s5" d="m4598.61 305.44v7.71c0 1.03 0.55 1.99 1.43 2.52l5.97 3.59q0.7 0.41 1.52 0.42h0.32c0.61 0 1.2-0.19 1.7-0.54l4.79-3.39c0.75-0.53 1.21-1.39 1.24-2.31l0.26-8.02c0.03-0.99-0.43-1.93-1.24-2.5l-5.32-3.77c-0.5-0.35-1.09-0.53-1.7-0.53-0.57 0-1.12 0.16-1.59 0.46l-6.03 3.89c-0.84 0.54-1.35 1.47-1.35 2.47z"/>
					</g>
				</g>
				<path id="&lt;Path&gt;" class="s5" d="m4327.59 389.25l-15.12-9v-7.02l-130.86-76.87v-61.74l-15.84-9.36v-28.44l22.5-14.76h4.14l23.22 14.4v28.98l-14.76 9.18 0.36 50.22 109.8 64.63-0.36 13.86 16.92 9.9z"/>
				<path id="&lt;Path&gt;" class="s5" d="m4394.01 395.37v-22.14l-55.26-32.94v-90.18l-35.1-24.84-0.18-79.56-6.12 2.43-7.07 0.13-6.03-2.07 0.27 89.87 34.11 23.62v91.44l73.08 44.24"/>
				<path id="&lt;Path&gt;" class="s5" d="m4412.46 326.97v-22.5l-20.88-13.14v-68.94l15.3-9.18-0.27-29.7-22.95-13.23h-4.14l-22.77 14.04v28.08l15.03 10.08 0.27 81z"/>
				<path id="&lt;Path&gt;" class="s5" d="m4382.85 208.44h-2.52l-7.83-5.22v-8.91l8.1-6.12h2.25l7.38 5.49v9.9z"/>
				<path id="&lt;Path&gt;" class="s5" d="m4295.64 146.34h-5.22l-22.59-14.04-0.27-30.06 24.21-14.94h2.7l24.39 15.12v29.79z"/>
				<path id="&lt;Path&gt;" class="s5" d="m4294.29 127.35h-2.61l-7.43-4.32v-11.79l7.97-5.04h2.07l8.28 5.04v11.25z"/>
				<path id="&lt;Path&gt;" class="s5" d="m4199.61 205.46v10.98l-8.1 4.86h-2.07l-6.75-4.77-0.36-11.07 7.38-5.22h1.8z"/>
				<g id="&lt;Group&gt;">
					<path id="&lt;Path&gt;" class="s5" d="m4508.99 436.14h-27.24l-46.08-52.2 0.06-49.02-15.84-10.62-0.06-27.6 22.98-13.92h4.8l22.2 14.28-0.06 28.8-12.72 8.28-0.3 42.96z"/>
					<path id="&lt;Path&gt;" class="s5" d="m4453.33 305.44v7.71c0 1.03-0.54 1.99-1.42 2.52l-5.98 3.59q-0.7 0.41-1.51 0.42h-0.32c-0.61 0-1.2-0.19-1.7-0.54l-4.79-3.39c-0.75-0.53-1.21-1.39-1.24-2.31l-0.27-8.02c-0.03-0.99 0.44-1.93 1.25-2.5l5.32-3.77c0.5-0.35 1.09-0.53 1.7-0.53 0.56 0 1.12 0.16 1.59 0.46l6.03 3.89c0.84 0.54 1.34 1.47 1.34 2.47z"/>
				</g>
			</g>
		</g>
		<g id="&lt;Group&gt;">
			<path id="&lt;Path&gt;" class="s10" d="m4556.86 2429.88h-108.12l24 25.92 17.04 100.2h26.04l16.92-100.2z"/>
			<path id="&lt;Path&gt;" class="s10" d="m4468.66 2639.28l0.96 49.92-19.92-7.2-1.2-39.36-12.72-15.12v-89.28l-57.36-57.36-34.8-45.84-92.16-25.2 20.4 43.92 26.88 13.44 35.76 5.52 13.2 24-54.72-0.48-45.36-23.04-47.28-104.4 189.36 38.4 64.56 63.12 16.44 106.56h63.12l18.12-107.16 65.16-63.12 187.8-37.8v2.88l-48 102.24-45.84 24.12-55.44 0.12 14.16-24.36 37.08-6.12 26.28-12.72 20.88-45.24-93 25.2-35.88 48.12-55.56 55.8-0.6 90.24-11.76 15-1.2 37.68-20.4 7.44-0.72-48.96-30.54-0.96z"/>
			<path id="&lt;Path&gt;" class="s10" d="m4372.9 2505.36l-0.03 56.43 42.84 49.05v-63z"/>
			<path id="&lt;Path&gt;" class="s10" d="m4372.87 2593.02v95.58l62.91 65.25v-89.01z"/>
			<path id="&lt;Path&gt;" class="s10" d="m4452.7 2700.84l0.27 71.91 98.91 0.09v-72h-16.02l-2.88 5.04-61.02-0.09-2.97-4.95z"/>
			<path id="&lt;Path&gt;" class="s10" d="m4568.74 2664.81l-0.09 89.28 64.35-66.6v-94.77z"/>
			<path id="&lt;Path&gt;" class="s10" d="m4589.14 2611.44l43.86-50.64v-53.28l-43.86 41.28z"/>
			<g id="&lt;Group&gt;">
				<g id="&lt;Group&gt;">
					<path id="&lt;Path&gt;" class="s10" d="m4705.9 2368.8l15.12-9v-7.02l130.86-76.86v-61.74l15.84-9.36v-28.44l-22.5-14.76h-4.14l-23.22 14.4v28.98l14.76 9.18-0.36 50.22-109.8 64.62 0.36 13.86-16.92 9.9z"/>
					<path id="&lt;Path&gt;" class="s10" d="m4639.48 2374.92v-22.14l55.26-32.94v-90.18l35.1-24.84 0.18-79.56 6.12 2.43 7.06 0.13 6.03-2.07-0.27 89.87-34.11 23.62v91.44l-73.08 44.24z"/>
					<path id="&lt;Path&gt;" class="s10" d="m4621.03 2306.52v-22.5l20.88-13.14v-68.94l-15.3-9.18 0.27-29.7 22.95-13.23h4.14l22.77 14.04v28.08l-15.03 10.08-0.27 81z"/>
					<path id="&lt;Path&gt;" class="s10" d="m4650.64 2187.99h2.52l7.83-5.22v-8.91l-8.1-6.12h-2.25l-7.38 5.49v9.9z"/>
					<path id="&lt;Path&gt;" class="s10" d="m4737.85 2125.89h5.22l22.59-14.04 0.27-30.06-24.21-14.94h-2.7l-24.39 15.12v29.79z"/>
					<path id="&lt;Path&gt;" class="s10" d="m4739.2 2106.9h2.61l7.42-4.32v-11.79l-7.96-5.04h-2.07l-8.28 5.04v11.25z"/>
					<path id="&lt;Path&gt;" class="s10" d="m4833.88 2185.02v10.98l8.1 4.86h2.07l6.75-4.77 0.36-11.07-7.38-5.22h-1.8z"/>
					<g id="&lt;Group&gt;">
						<path id="&lt;Path&gt;" class="s10" d="m4524.7 2422.98h27.24l46.08-52.2-0.06-49.02 15.84-10.62 0.06-27.6-22.98-13.92h-4.8l-22.2 14.28 0.06 28.8 12.72 8.28 0.3 42.96z"/>
						<path id="&lt;Path&gt;" class="s10" d="m4580.36 2292.28v7.71c0 1.04 0.54 1.99 1.43 2.53l5.97 3.58q0.7 0.42 1.51 0.42h0.32c0.61 0 1.2-0.19 1.7-0.54l4.79-3.39c0.76-0.53 1.22-1.38 1.25-2.3l0.26-8.03c0.03-0.99-0.44-1.92-1.24-2.49l-5.33-3.77c-0.5-0.35-1.09-0.54-1.7-0.54-0.56 0-1.11 0.16-1.59 0.47l-6.02 3.88c-0.84 0.54-1.35 1.47-1.35 2.47z"/>
					</g>
				</g>
				<path id="&lt;Path&gt;" class="s10" d="m4309.33 2376.09l-15.12-9v-7.02l-130.86-76.86v-61.74l-15.84-9.36v-28.44l22.5-14.76h4.14l23.22 14.4v28.98l-14.76 9.18 0.36 50.22 109.8 64.62-0.36 13.86 16.92 9.9z"/>
				<path id="&lt;Path&gt;" class="s10" d="m4375.75 2382.21v-22.14l-55.26-32.94v-90.18l-35.1-24.84-0.18-79.56-6.12 2.43-7.06 0.13-6.03-2.07 0.27 89.87 34.11 23.62v91.44l73.08 44.24"/>
				<path id="&lt;Path&gt;" class="s10" d="m4394.2 2313.81v-22.5l-20.88-13.14v-68.94l15.3-9.18-0.27-29.7-22.95-13.23h-4.14l-22.77 14.04v28.08l15.03 10.08 0.27 81z"/>
				<path id="&lt;Path&gt;" class="s10" d="m4364.59 2195.28h-2.52l-7.83-5.22v-8.91l8.1-6.12h2.25l7.38 5.49v9.9z"/>
				<path id="&lt;Path&gt;" class="s10" d="m4277.38 2133.18h-5.22l-22.59-14.04-0.27-30.06 24.21-14.94h2.7l24.39 15.12v29.79z"/>
				<path id="&lt;Path&gt;" class="s10" d="m4276.03 2114.19h-2.61l-7.42-4.32v-11.79l7.96-5.04h2.07l8.28 5.04v11.25z"/>
				<path id="&lt;Path&gt;" class="s10" d="m4181.35 2192.31v10.98l-8.1 4.86h-2.07l-6.75-4.77-0.36-11.07 7.38-5.22h1.8z"/>
				<g id="&lt;Group&gt;">
					<path id="&lt;Path&gt;" class="s10" d="m4490.74 2422.98h-27.24l-46.08-52.2 0.06-49.02-15.84-10.62-0.06-27.6 22.98-13.92h4.8l22.2 14.28-0.06 28.8-12.72 8.28-0.3 42.96z"/>
					<path id="&lt;Path&gt;" class="s10" d="m4435.08 2292.28v7.71c0 1.04-0.54 1.99-1.43 2.53l-5.97 3.58q-0.7 0.42-1.52 0.42h-0.32c-0.61 0-1.2-0.19-1.69-0.54l-4.8-3.39c-0.75-0.53-1.21-1.38-1.24-2.3l-0.26-8.03c-0.03-0.99 0.43-1.92 1.24-2.49l5.32-3.77c0.5-0.35 1.09-0.54 1.7-0.54 0.57 0 1.12 0.16 1.6 0.47l6.02 3.88c0.84 0.54 1.35 1.47 1.35 2.47z"/>
				</g>
			</g>
		</g>
		<text id="Cervid
" transform="translate(3250.5,705.9)">
			<tspan x="0" y="0" class="t11">Cervid
</tspan>
		</text>
		<path id="&lt;Path&gt;" class="s4" d="m3462 3522h-2000v-2000h2000z"/>
		<g id="&lt;Group&gt;">
			<path id="&lt;Path&gt;" class="s5" d="m1914.55 2502.97h-108.12l24 25.92 17.04 100.2h26.04l16.92-100.2z"/>
			<path id="&lt;Path&gt;" class="s5" d="m1826.35 2712.37l0.96 49.92-19.92-7.2-1.2-39.36-12.72-15.12v-89.28l-57.36-57.36-34.8-45.84-92.16-25.2 20.4 43.92 26.88 13.44 35.76 5.52 13.2 24-54.72-0.48-45.36-23.04-47.28-104.4 189.36 38.4 64.56 63.12 16.44 106.56h63.12l18.12-107.16 65.16-63.12 187.8-37.8v2.88l-48 102.24-45.84 24.12-55.44 0.12 14.16-24.36 37.08-6.12 26.28-12.72 20.88-45.24-93 25.2-35.88 48.12-55.56 55.8-0.6 90.24-11.76 15-1.2 37.68-20.4 7.44-0.72-48.96-30.53-0.96z"/>
			<path id="&lt;Path&gt;" class="s5" d="m1730.59 2578.45l-0.03 56.43 42.84 49.05v-63z"/>
			<path id="&lt;Path&gt;" class="s5" d="m1730.56 2666.11v95.58l62.91 65.25v-89.01z"/>
			<path id="&lt;Path&gt;" class="s5" d="m1810.39 2773.93l0.27 71.91 98.91 0.09v-72h-16.02l-2.88 5.04-61.02-0.09-2.97-4.95z"/>
			<path id="&lt;Path&gt;" class="s5" d="m1926.43 2737.9l-0.09 89.28 64.35-66.6v-94.77z"/>
			<path id="&lt;Path&gt;" class="s5" d="m1946.83 2684.53l43.86-50.64v-53.28l-43.86 41.28z"/>
			<g id="&lt;Group&gt;">
				<g id="&lt;Group&gt;">
					<path id="&lt;Path&gt;" class="s5" d="m2063.59 2441.89l15.12-9v-7.02l130.86-76.86v-61.74l15.84-9.36v-28.44l-22.5-14.76h-4.14l-23.22 14.4v28.98l14.76 9.18-0.36 50.22-109.8 64.62 0.36 13.86-16.92 9.9z"/>
					<path id="&lt;Path&gt;" class="s5" d="m1997.17 2448.01v-22.14l55.26-32.94v-90.18l35.1-24.84 0.18-79.56 6.12 2.43 7.07 0.14 6.03-2.07-0.27 89.86-34.11 23.63v91.44l-73.08 44.23z"/>
					<path id="&lt;Path&gt;" class="s5" d="m1978.72 2379.61v-22.5l20.88-13.14v-68.94l-15.3-9.18 0.27-29.7 22.95-13.23h4.14l22.77 14.04v28.08l-15.03 10.08-0.27 81z"/>
					<path id="&lt;Path&gt;" class="s5" d="m2008.33 2261.08h2.52l7.83-5.22v-8.91l-8.1-6.12h-2.25l-7.38 5.49v9.9z"/>
					<path id="&lt;Path&gt;" class="s5" d="m2095.54 2198.98h5.22l22.59-14.04 0.27-30.06-24.21-14.94h-2.7l-24.39 15.12v29.79z"/>
					<path id="&lt;Path&gt;" class="s5" d="m2096.89 2179.99h2.61l7.43-4.32v-11.79l-7.97-5.04h-2.07l-8.28 5.04v11.25z"/>
					<path id="&lt;Path&gt;" class="s5" d="m2191.57 2258.11v10.98l8.1 4.86h2.07l6.75-4.77 0.36-11.07-7.38-5.22h-1.8z"/>
					<g id="&lt;Group&gt;">
						<path id="&lt;Path&gt;" class="s5" d="m1882.39 2496.07h27.24l46.08-52.2-0.06-49.02 15.84-10.62 0.06-27.6-22.98-13.92h-4.8l-22.2 14.28 0.06 28.8 12.72 8.28 0.3 42.96z"/>
						<path id="&lt;Path&gt;" class="s5" d="m1938.05 2365.38v7.71c0 1.03 0.54 1.99 1.43 2.52l5.97 3.59q0.7 0.41 1.52 0.41h0.32c0.61 0 1.2-0.18 1.7-0.53l4.79-3.39c0.75-0.53 1.21-1.39 1.24-2.31l0.26-8.02c0.03-0.99-0.43-1.93-1.24-2.5l-5.32-3.77c-0.5-0.35-1.09-0.54-1.7-0.54-0.57 0-1.12 0.17-1.59 0.47l-6.03 3.89c-0.84 0.54-1.35 1.47-1.35 2.47z"/>
					</g>
				</g>
				<path id="&lt;Path&gt;" class="s5" d="m1667.03 2449.18l-15.12-9v-7.02l-130.86-76.86v-61.74l-15.84-9.36v-28.44l22.5-14.76h4.14l23.22 14.4v28.98l-14.76 9.18 0.36 50.22 109.8 64.62-0.36 13.86 16.92 9.9z"/>
				<path id="&lt;Path&gt;" class="s5" d="m1733.45 2455.3v-22.14l-55.26-32.94v-90.18l-35.1-24.84-0.18-79.56-6.12 2.43-7.07 0.14-6.03-2.07 0.27 89.86 34.11 23.63v91.44l73.08 44.23"/>
				<path id="&lt;Path&gt;" class="s5" d="m1751.9 2386.9v-22.5l-20.88-13.14v-68.94l15.3-9.18-0.27-29.7-22.95-13.23h-4.14l-22.77 14.04v28.08l15.03 10.08 0.27 81z"/>
				<path id="&lt;Path&gt;" class="s5" d="m1722.29 2268.37h-2.52l-7.83-5.22v-8.91l8.1-6.12h2.25l7.38 5.49v9.9z"/>
				<path id="&lt;Path&gt;" class="s5" d="m1635.08 2206.27h-5.22l-22.59-14.04-0.27-30.06 24.21-14.94h2.7l24.39 15.12v29.79z"/>
				<path id="&lt;Path&gt;" class="s5" d="m1633.73 2187.28h-2.61l-7.43-4.32v-11.79l7.97-5.04h2.07l8.28 5.04v11.25z"/>
				<path id="&lt;Path&gt;" class="s5" d="m1539.05 2265.4v10.98l-8.1 4.86h-2.07l-6.75-4.77-0.36-11.07 7.38-5.22h1.8z"/>
				<g id="&lt;Group&gt;">
					<path id="&lt;Path&gt;" class="s5" d="m1848.43 2496.07h-27.24l-46.08-52.2 0.06-49.02-15.84-10.62-0.06-27.6 22.98-13.92h4.8l22.2 14.28-0.06 28.8-12.72 8.28-0.3 42.96z"/>
					<path id="&lt;Path&gt;" class="s5" d="m1792.77 2365.38v7.71c0 1.03-0.54 1.99-1.42 2.52l-5.98 3.59q-0.7 0.41-1.51 0.41h-0.32c-0.61 0-1.2-0.18-1.7-0.53l-4.79-3.39c-0.75-0.53-1.21-1.39-1.24-2.31l-0.27-8.02c-0.03-0.99 0.44-1.93 1.25-2.5l5.32-3.77c0.5-0.35 1.09-0.54 1.7-0.54 0.56 0 1.12 0.17 1.59 0.47l6.03 3.89c0.84 0.54 1.34 1.47 1.34 2.47z"/>
				</g>
			</g>
		</g>
		<text id="Cervid
" transform="translate(3206.2,2718.5)">
			<tspan x="0" y="0" class="t12">Cervid
</tspan>
		</text>
		<g id="&lt;Group&gt;">
			<path id="&lt;Path&gt;" class="s5" d="m-83.08 2513.01h-108.12l24 25.92 17.04 100.2h26.04l16.92-100.2z"/>
			<path id="&lt;Path&gt;" class="s5" d="m-171.28 2722.41l0.96 49.92-19.92-7.2-1.2-39.36-12.72-15.12v-89.28l-57.36-57.36-34.8-45.84-92.16-25.2 20.4 43.92 26.88 13.44 35.76 5.52 13.2 24-54.72-0.48-45.36-23.04-47.28-104.4 189.36 38.4 64.56 63.12 16.44 106.56h63.12l18.12-107.16 65.16-63.12 187.8-37.8v2.88l-48 102.24-45.84 24.12-55.44 0.12 14.16-24.36 37.08-6.12 26.28-12.72 20.88-45.24-93 25.2-35.88 48.12-55.56 55.8-0.6 90.24-11.76 15-1.2 37.68-20.4 7.44-0.72-48.96-30.54-0.96z"/>
			<path id="&lt;Path&gt;" class="s6" d="m-267.04 2588.49l-0.03 56.43 42.84 49.05v-63z"/>
			<path id="&lt;Path&gt;" class="s7" d="m-267.07 2676.15v95.58l62.91 65.25v-89.01z"/>
			<path id="&lt;Path&gt;" class="s7" d="m-187.24 2783.97l0.27 71.91 98.91 0.09v-72h-16.02l-2.88 5.04-61.02-0.09-2.97-4.95z"/>
			<path id="&lt;Path&gt;" class="s7" d="m-71.2 2747.94l-0.09 89.28 64.35-66.6v-94.77z"/>
			<path id="&lt;Path&gt;" class="s5" d="m-50.8 2694.57l43.86-50.64v-53.28l-43.86 41.28z"/>
			<g id="&lt;Group&gt;">
				<g id="&lt;Group&gt;">
					<path id="&lt;Path&gt;" class="s7" d="m65.96 2451.93l15.12-9v-7.02l130.86-76.86v-61.74l15.84-9.36v-28.44l-22.5-14.76h-4.14l-23.22 14.4v28.98l14.76 9.18-0.36 50.22-109.8 64.62 0.36 13.86-16.92 9.9z"/>
					<path id="&lt;Path&gt;" class="s7" d="m-0.46 2458.05v-22.14l55.26-32.94v-90.18l35.1-24.84 0.18-79.56 6.12 2.43 7.06 0.13 6.03-2.07-0.27 89.87-34.11 23.62v91.44l-73.08 44.24z"/>
					<path id="&lt;Path&gt;" class="s7" d="m-18.91 2389.65v-22.5l20.88-13.14v-68.94l-15.3-9.18 0.27-29.7 22.95-13.23h4.14l22.77 14.04v28.08l-15.03 10.08-0.27 81z"/>
					<path id="&lt;Path&gt;" class="s2" d="m10.7 2271.12h2.52l7.83-5.22v-8.91l-8.1-6.12h-2.25l-7.38 5.49v9.9z"/>
					<path id="&lt;Path&gt;" class="s7" d="m97.91 2209.02h5.22l22.59-14.04 0.27-30.06-24.21-14.94h-2.7l-24.39 15.12v29.79z"/>
					<path id="&lt;Path&gt;" class="s2" d="m99.26 2190.03h2.61l7.42-4.32v-11.79l-7.96-5.04h-2.07l-8.28 5.04v11.25z"/>
					<path id="&lt;Path&gt;" class="s2" d="m193.94 2268.15v10.98l8.1 4.86h2.07l6.75-4.77 0.36-11.07-7.38-5.22h-1.8z"/>
					<g id="&lt;Group&gt;">
						<path id="&lt;Path&gt;" class="s7" d="m-115.24 2506.11h27.24l46.08-52.2-0.06-49.02 15.84-10.62 0.06-27.6-22.98-13.92h-4.8l-22.2 14.28 0.06 28.8 12.72 8.28 0.3 42.96z"/>
						<path id="&lt;Path&gt;" class="s2" d="m-59.58 2375.41v7.71c0 1.04 0.54 1.99 1.42 2.53l5.98 3.58q0.7 0.42 1.51 0.42h0.32c0.61 0 1.2-0.19 1.7-0.54l4.79-3.39c0.75-0.53 1.21-1.38 1.24-2.3l0.26-8.03c0.04-0.99-0.43-1.92-1.24-2.49l-5.32-3.77c-0.5-0.35-1.09-0.54-1.7-0.54-0.56 0-1.12 0.16-1.59 0.47l-6.03 3.88c-0.84 0.54-1.34 1.47-1.34 2.47z"/>
					</g>
				</g>
				<path id="&lt;Path&gt;" class="s7" d="m-330.61 2459.22l-15.12-9v-7.02l-130.86-76.86v-61.74l-15.84-9.36v-28.44l22.5-14.76h4.14l23.22 14.4v28.98l-14.76 9.18 0.36 50.22 109.8 64.62-0.36 13.86 16.92 9.9z"/>
				<path id="&lt;Path&gt;" class="s7" d="m-264.19 2465.34v-22.14l-55.26-32.94v-90.18l-35.1-24.84-0.18-79.56-6.12 2.43-7.07 0.13-6.03-2.07 0.27 89.87 34.11 23.62v91.44l73.08 44.24"/>
				<path id="&lt;Path&gt;" class="s7" d="m-245.74 2396.94v-22.5l-20.88-13.14v-68.94l15.3-9.18-0.27-29.7-22.95-13.23h-4.14l-22.77 14.04v28.08l15.03 10.08 0.27 81z"/>
				<path id="&lt;Path&gt;" class="s7" d="m-275.35 2278.41h-2.52l-7.83-5.22v-8.91l8.1-6.12h2.25l7.38 5.49v9.9z"/>
				<path id="&lt;Path&gt;" class="s7" d="m-362.56 2216.31h-5.22l-22.59-14.04-0.27-30.06 24.21-14.94h2.7l24.39 15.12v29.79z"/>
				<path id="&lt;Path&gt;" class="s2" d="m-363.91 2197.32h-2.61l-7.43-4.32v-11.79l7.97-5.04h2.07l8.28 5.04v11.25z"/>
				<path id="&lt;Path&gt;" class="s2" d="m-458.59 2275.44v10.98l-8.1 4.86h-2.07l-6.75-4.77-0.36-11.07 7.38-5.22h1.8z"/>
				<g id="&lt;Group&gt;">
					<path id="&lt;Path&gt;" class="s7" d="m-149.2 2506.11h-27.24l-46.08-52.2 0.06-49.02-15.84-10.62-0.06-27.6 22.98-13.92h4.8l22.2 14.28-0.06 28.8-12.72 8.28-0.3 42.96z"/>
					<path id="&lt;Path&gt;" class="s2" d="m-204.86 2375.41v7.71c0 1.04-0.55 1.99-1.43 2.53l-5.98 3.58q-0.69 0.42-1.51 0.42h-0.32c-0.61 0-1.2-0.19-1.7-0.54l-4.79-3.39c-0.75-0.53-1.21-1.38-1.24-2.3l-0.26-8.03c-0.03-0.99 0.43-1.92 1.24-2.49l5.32-3.77c0.5-0.35 1.09-0.54 1.7-0.54 0.57 0 1.12 0.16 1.59 0.47l6.03 3.88c0.84 0.54 1.35 1.47 1.35 2.47z"/>
				</g>
			</g>
		</g>
		<text id="Cervid
" transform="translate(1162.8,2746.5)">
			<tspan x="0" y="0" class="t12">Cervid
</tspan>
		</text>
	</g>
</svg>